<svg xmlns="http://www.w3.org/2000/svg" width="900" height="720" viewBox="0 0 900 720" role="img" aria-label="Dark cartographic graph backdrop">
  <defs>
    <radialGradient id="glow" cx="48%" cy="40%" r="68%">
      <stop offset="0" stop-color="#31452f" stop-opacity="0.72"/>
      <stop offset="0.48" stop-color="#172116" stop-opacity="0.92"/>
      <stop offset="1" stop-color="#0d130d"/>
    </radialGradient>
    <pattern id="smallGrid" width="72" height="72" patternUnits="userSpaceOnUse">
      <path d="M72 0H0V72" fill="none" stroke="#d3b15f" stroke-width="0.55" opacity="0.13"/>
      <path d="M36 0V72M0 36H72" fill="none" stroke="#d3b15f" stroke-width="0.35" opacity="0.08"/>
    </pattern>
  </defs>
  <rect width="900" height="720" fill="url(#glow)"/>
  <rect width="900" height="720" fill="url(#smallGrid)"/>
  <g fill="none" stroke="#d4b15f" stroke-linecap="round" opacity="0.18">
    <path d="M65 143c94-54 132 41 229-9 86-44 126-141 230-99 83 34 89 127 181 129 60 2 91-35 143-63" stroke-width="1.4"/>
    <path d="M70 545c62-64 126-51 199-33 105 26 137-74 230-68 92 7 120 108 219 93 53-8 90-41 132-89" stroke-width="1.2"/>
    <path d="M715 40c-40 83-31 145 27 190 45 34 101 42 113 94 17 74-78 123-45 215 14 39 40 66 77 91" stroke-width="1"/>
  </g>
  <g fill="#d4b15f" opacity="0.32">
    <circle cx="118" cy="121" r="1.8"/>
    <circle cx="276" cy="91" r="1.2"/>
    <circle cx="401" cy="166" r="1.5"/>
    <circle cx="528" cy="72" r="1.7"/>
    <circle cx="692" cy="148" r="1.4"/>
    <circle cx="808" cy="98" r="1.8"/>
    <circle cx="133" cy="540" r="1.3"/>
    <circle cx="318" cy="470" r="1.5"/>
    <circle cx="468" cy="524" r="1.4"/>
    <circle cx="624" cy="455" r="1.9"/>
    <circle cx="792" cy="570" r="1.2"/>
  </g>
  <g fill="none" stroke="#d4b15f" opacity="0.22">
    <circle cx="780" cy="600" r="44"/>
    <circle cx="780" cy="600" r="9"/>
    <path d="M780 540v120M720 600h120M738 558l84 84M822 558l-84 84"/>
  </g>
</svg>
