<svg xmlns="http://www.w3.org/2000/svg" width="1200" height="720" viewBox="0 0 1200 720" role="img" aria-label="Subtle parchment map texture">
  <defs>
    <filter id="paperNoise">
      <feTurbulence type="fractalNoise" baseFrequency="0.85" numOctaves="3" seed="23"/>
      <feColorMatrix type="saturate" values="0"/>
      <feComponentTransfer>
        <feFuncA type="table" tableValues="0 0.12"/>
      </feComponentTransfer>
    </filter>
    <pattern id="grid" width="88" height="88" patternUnits="userSpaceOnUse">
      <path d="M88 0H0V88" fill="none" stroke="#7c6a3f" stroke-width="0.8" opacity="0.14"/>
      <path d="M44 0V88M0 44H88" fill="none" stroke="#7c6a3f" stroke-width="0.45" opacity="0.09"/>
    </pattern>
  </defs>
  <rect width="1200" height="720" fill="#efe5c8"/>
  <rect width="1200" height="720" fill="url(#grid)"/>
  <rect width="1200" height="720" filter="url(#paperNoise)" opacity="0.75"/>
  <g fill="none" stroke="#6d5731" stroke-linecap="round" stroke-linejoin="round" opacity="0.25">
    <path d="M28 111C98 82 150 128 226 92c48-23 99-70 168-49 88 27 117 106 199 98 82-7 104-92 181-90 95 2 130 119 226 118 72 0 106-61 171-54" stroke-width="2"/>
    <path d="M69 514c74-54 138-32 206-87 49-39 75-110 146-116 75-6 109 67 181 68 72 1 102-70 171-61 75 10 82 96 153 115 89 24 147-73 242-28" stroke-width="1.6"/>
    <path d="M760 16c-18 72-7 124 33 156 45 35 119 17 143 75 25 60-33 105-2 167 29 57 101 57 128 117 20 43 7 94-38 153" stroke-width="1.4"/>
    <path d="M148 662c22-56 67-75 122-66 73 12 107-39 171-42 72-4 112 54 180 42 55-10 78-57 137-47" stroke-width="1.2"/>
  </g>
  <g fill="none" stroke="#6d5731" stroke-width="1" opacity="0.18">
    <path d="M92 184l18-30 18 30m-8-13 20 29m-30-16-21 29"/>
    <path d="M103 214l18-30 18 30m-8-13 20 29m-30-16-21 29"/>
    <path d="M1008 82l20-34 20 34m-9-15 25 36m-36-21-26 39"/>
    <path d="M1041 121l16-27 16 27m-7-12 19 27m-28-15-18 28"/>
    <path d="M945 620l17-29 17 29m-8-12 21 30m-30-16-20 31"/>
  </g>
  <g fill="none" stroke="#5f4b2b" opacity="0.2">
    <circle cx="1035" cy="602" r="45"/>
    <path d="M1035 540v124M973 602h124M991 558l88 88M1079 558l-88 88"/>
    <circle cx="1035" cy="602" r="10"/>
  </g>
</svg>
